<mxfile host="app.diagrams.net" modified="2023-12-08T16:53:51.485Z" agent="Mozilla/5.0 (X11; Linux x86_64; rv:109.0) Gecko/20100101 Firefox/115.0" etag="kx8rbxhbawjNdwKQQrTv" version="22.1.7" type="device">
  <diagram name="PÃ¡gina-1" id="RFoD36_f6M6v5PvuggzM">
    <mxGraphModel dx="874" dy="441" grid="1" gridSize="10" guides="1" tooltips="1" connect="1" arrows="1" fold="1" page="1" pageScale="1" pageWidth="827" pageHeight="1169" background="#ebd5e9" math="0" shadow="0">
      <root>
        <mxCell id="0" />
        <mxCell id="1" parent="0" />
        <mxCell id="hh__Neavq-cqtYrOFWg7-1" value="&lt;font style=&quot;font-size: 25px;&quot;&gt;&lt;b&gt;&lt;i&gt;Arquitectura de Harvard&lt;/i&gt;&lt;/b&gt;&lt;/font&gt;" style="rounded=1;whiteSpace=wrap;html=1;" vertex="1" parent="1">
          <mxGeometry x="200" y="40" width="320" height="40" as="geometry" />
        </mxCell>
        <mxCell id="hh__Neavq-cqtYrOFWg7-5" style="edgeStyle=orthogonalEdgeStyle;rounded=0;orthogonalLoop=1;jettySize=auto;html=1;exitX=1;exitY=0.25;exitDx=0;exitDy=0;entryX=0;entryY=0.5;entryDx=0;entryDy=0;" edge="1" parent="1" source="hh__Neavq-cqtYrOFWg7-2" target="hh__Neavq-cqtYrOFWg7-3">
          <mxGeometry relative="1" as="geometry" />
        </mxCell>
        <mxCell id="hh__Neavq-cqtYrOFWg7-6" style="edgeStyle=orthogonalEdgeStyle;rounded=0;orthogonalLoop=1;jettySize=auto;html=1;exitX=1;exitY=0.75;exitDx=0;exitDy=0;" edge="1" parent="1" source="hh__Neavq-cqtYrOFWg7-2" target="hh__Neavq-cqtYrOFWg7-4">
          <mxGeometry relative="1" as="geometry" />
        </mxCell>
        <mxCell id="hh__Neavq-cqtYrOFWg7-2" value="&lt;b&gt;&lt;font style=&quot;font-size: 30px;&quot;&gt;CPU&lt;/font&gt;&lt;/b&gt;" style="rounded=1;whiteSpace=wrap;html=1;" vertex="1" parent="1">
          <mxGeometry x="160" y="160" width="120" height="120" as="geometry" />
        </mxCell>
        <mxCell id="hh__Neavq-cqtYrOFWg7-3" value="&lt;b&gt;Memoria para datos&lt;br&gt;&lt;/b&gt;" style="rounded=1;whiteSpace=wrap;html=1;" vertex="1" parent="1">
          <mxGeometry x="440" y="120" width="120" height="80" as="geometry" />
        </mxCell>
        <mxCell id="hh__Neavq-cqtYrOFWg7-4" value="&lt;b&gt;Memoria para programas&lt;br&gt;&lt;/b&gt;" style="rounded=1;whiteSpace=wrap;html=1;" vertex="1" parent="1">
          <mxGeometry x="440" y="240" width="120" height="80" as="geometry" />
        </mxCell>
      </root>
    </mxGraphModel>
  </diagram>
</mxfile>
